<svg width="40" height="41" viewBox="0 0 40 41" fill="none" xmlns="http://www.w3.org/2000/svg">
<g id="teenyicons:apple-solid" clip-path="url(#clip0_480_1666)">
<path id="Vector" d="M21 8.30084C20.8701 8.30225 20.7411 8.27805 20.6206 8.22963C20.5 8.18121 20.3902 8.10951 20.2973 8.01863C20.2044 7.92775 20.1304 7.81947 20.0794 7.69997C20.0284 7.58047 20.0014 7.4521 20 7.32217C20 3.53551 23.136 0.468841 26.9973 0.468841C27.1273 0.467079 27.2564 0.491035 27.3772 0.53933C27.4979 0.587626 27.6079 0.659308 27.7008 0.750257C27.7937 0.841205 27.8678 0.949626 27.9187 1.06928C27.9696 1.18894 27.9963 1.31748 27.9973 1.44751C27.9973 5.23417 24.864 8.30084 21 8.30084Z" fill="#333333"/>
<path id="Vector_2" d="M21 8.30084C20.8701 8.30225 20.7411 8.27805 20.6206 8.22963C20.5 8.18121 20.3902 8.10951 20.2973 8.01863C20.2044 7.92775 20.1304 7.81947 20.0794 7.69997C20.0284 7.58047 20.0014 7.4521 20 7.32217C20 3.53551 23.136 0.468841 26.9973 0.468841C27.1273 0.467079 27.2564 0.491035 27.3772 0.53933C27.4979 0.587626 27.6079 0.659308 27.7008 0.750257C27.7937 0.841205 27.8678 0.949626 27.9187 1.06928C27.9696 1.18894 27.9963 1.31748 27.9973 1.44751C27.9973 5.23417 24.864 8.30084 21 8.30084ZM35.6 28.9168C35.9867 29.1995 36.112 29.7168 35.8933 30.1382C32.3733 37.0342 29.5653 40.4688 27 40.4688C25.8053 40.4688 24.632 40.0902 23.488 39.3542C22.6669 38.827 21.7161 38.5371 20.7405 38.5164C19.765 38.4957 18.8027 38.745 17.96 39.2368C16.5733 40.0502 15.2533 40.4688 14 40.4688C10.2267 40.4688 4 29.0902 4 22.8475C4 16.1808 7.57067 11.0982 13 11.0982C15.5547 11.0982 17.76 11.4662 19.6133 12.2155C20.3973 12.5302 21.2853 12.5088 22.0507 12.1488C23.5547 11.4395 25.5387 11.0982 27.9973 11.0982C31.0027 11.0982 33.624 12.5648 35.8 15.4048C35.8787 15.5073 35.9361 15.6244 35.9687 15.7494C36.0013 15.8744 36.0085 16.0046 35.9898 16.1325C35.9712 16.2603 35.9271 16.383 35.8601 16.4935C35.7931 16.604 35.7047 16.6999 35.6 16.7755C33.1707 18.5622 32 20.5648 32 22.8475C32 25.1275 33.1707 27.1328 35.6 28.9168Z" fill="#F8F5F5"/>
<path id="Vector_3" d="M35.6 28.9163C35.9867 29.199 36.112 29.7163 35.8933 30.1377C32.3733 37.0337 29.5653 40.4683 27 40.4683C25.8053 40.4683 24.632 40.0897 23.488 39.3537C22.6669 38.8265 21.7161 38.5365 20.7405 38.5158C19.765 38.4951 18.8027 38.7445 17.96 39.2363C16.5733 40.0497 15.2533 40.4683 14 40.4683C10.2267 40.4683 4 29.0897 4 22.847C4 16.1803 7.57067 11.0977 13 11.0977C15.5547 11.0977 17.76 11.4657 19.6133 12.215C20.3973 12.5297 21.2853 12.5083 22.0507 12.1483C23.5547 11.439 25.5387 11.0977 27.9973 11.0977C31.0027 11.0977 33.624 12.5643 35.8 15.4043C35.8787 15.5067 35.9361 15.6239 35.9687 15.7489C36.0013 15.8739 36.0085 16.0041 35.9898 16.1319C35.9712 16.2598 35.9271 16.3825 35.8601 16.493C35.7931 16.6034 35.7047 16.6993 35.6 16.775C33.1707 18.5617 32 20.5643 32 22.847C32 25.127 33.1707 27.1323 35.6 28.9163Z" fill="#E5E5E5"/>
</g>
<defs>
<clipPath id="clip0_480_1666">
<rect width="40" height="40" fill="white" transform="translate(0 0.46875)"/>
</clipPath>
</defs>
</svg>
